<svg 
  data-v-1084b650="" 
  xmlns="http://www.w3.org/2000/svg" 
  viewBox="50 100 250 100" 
> 
<!----> white background<!----> 
  <!-- <rect 
    data-v-1084b650="" 
    fill="#ffffff" 
    x="0" 
    y="0" 
    width="300" 
    height="300" 
    class="logo-background-square">
  </rect>  -->
<!----> 
  <g 
    data-v-1084b650="" 
    id="b7c3e8dd-8bf8-d196-f497-5d9bfbca03ad" 
    fill="#000000" 
    transform="matrix(2.5,0,0,2.5,94.87352019548416,136.53750532865524)"
  >
    <path d="M8.37 10.50L8.37 10.50L6.05 6.37C8.99 5.52 8.64 0.49 5.07 0.49L1.12 0.49L1.12 10.50L3.12 10.50L3.12 6.68L4.09 6.68L6.10 10.50ZM3.12 2.49L4.89 2.49C6.24 2.49 6.24 4.73 4.89 4.73L3.12 4.73L3.12 4.73ZM14.52 10.64L14.52 10.64C21.41 10.64 21.41 0.32 14.52 0.32C7.63 0.32 7.63 10.64 14.52 10.64ZM14.52 8.57L14.52 8.57C10.51 8.57 10.51 2.38 14.52 2.38C18.52 2.38 18.52 8.57 14.52 8.57ZM20.66 10.50L22.93 10.50L23.32 9.42L26.64 9.42L27.05 10.50L29.30 10.50L25.09 0.13L24.88 0.13L20.66 10.50L20.66 10.50ZM24.05 7.55L24.99 4.94L25.90 7.55L24.05 7.55L24.05 7.55ZM33.68 0.49L30.70 0.49L30.70 10.50L33.68 10.50C40.35 10.50 40.35 0.49 33.68 0.49L33.68 0.49ZM33.68 2.49C37.58 2.49 37.58 8.50 33.68 8.50L32.70 8.50L32.70 2.49L33.68 2.49L33.68 2.49ZM47.81 10.50L47.81 10.50L45.49 6.37C48.43 5.52 48.08 0.49 44.51 0.49L40.56 0.49L40.56 10.50L42.56 10.50L42.56 6.68L43.53 6.68L45.54 10.50ZM42.56 2.49L44.32 2.49C45.68 2.49 45.68 4.73 44.32 4.73L42.56 4.73L42.56 4.73ZM48.24 10.50L50.51 10.50L50.90 9.42L54.22 9.42L54.63 10.50L56.88 10.50L52.67 0.13L52.46 0.13L48.24 10.50L48.24 10.50ZM51.63 7.55L52.57 4.94L53.48 7.55L51.63 7.55L51.63 7.55ZM61.28 10.50L61.28 2.49L63.77 2.49L63.77 0.50L56.78 0.50L56.78 2.49L59.28 2.49L59.28 10.50L61.28 10.50L61.28 10.50ZM70.46 10.50L70.46 10.50L70.46 8.50L67.28 8.50L67.28 6.50L69.92 6.50L69.92 4.49L67.28 4.49L67.28 2.49L70.29 2.49L70.29 0.49L65.28 0.49L65.28 10.50L70.46 10.50Z">
    </path>
  </g> 

  <!--  THUMBNAIL GRADIENT COLOR    -->
  <linearGradient 
    data-v-1084b650="" 
    gradientTransform="rotate(25)" id="5bd83f18-5314-0a4e-7c5c-46f705f46cd3" 
    x1="0%" 
    y1="0%" 
    x2="100%" 
    y2="0%"
  >
    <stop 
      data-v-1084b650="" 
      offset="0%" 
      style="stop-color: rgb(8, 199, 214); stop-opacity: 1;"
    />
    <stop 
      data-v-1084b650="" 
      offset="100%" 
      style="stop-color: rgb(2, 2, 62); stop-opacity: 1;"
    />
  </linearGradient> 
  
  <g data-v-1084b650="" id="8bb545bc-ddc5-4887-7be4-6cc5b04e4242" fill="url(#5bd83f18-5314-0a4e-7c5c-46f705f46cd3)" stroke="none" transform="matrix(0.14981413181282144,0,0,0.14981413181282144,38.87639097026428,127.68338874163926)">
  
  <!-- THUMBSUP POSITION -->
  <svg 
    xmlns="http://www.w3.org/2000/svg" viewBox="-50 0 90 90"
  >
    <path d="M9.808 49.653h14.615v36.538H9.808V49.653zm21.923 0h14.615v-7.307h7.308v-7.308h7.307V13.116h7.309V42.347h21.922v43.845H53.654v-7.307H31.731V49.653zm29.23-43.845v7.308h-7.308V27.73h-7.307v14.616H2.5V93.5h29.231v-7.309h21.922V93.5h36.539v-7.309H97.5V35.039H75.577V5.808H60.961z">
    </path>
  </svg>
 
 </g>
</svg>